<svg width="54" height="84" viewBox="0 0 54 84" fill="none" xmlns="http://www.w3.org/2000/svg">
<path d="M0 71.6861L9.52276 60.9046C10.7268 63.8599 12.6605 66.195 15.324 67.9098C17.9874 69.5882 20.9793 70.4273 24.2994 70.4273C28.3129 70.4273 31.4871 69.4787 33.8222 67.5815C36.1573 65.6842 37.3248 63.1302 37.3248 59.9195C37.3248 56.125 33.4391 52.3487 25.6677 48.5907C23.1501 47.3866 21.1617 46.4015 19.7023 45.6353C12.697 41.9868 7.84442 38.4294 5.14448 34.9633C2.44454 31.4607 1.09457 27.3013 1.09457 22.4852C0.689235 13.5605 5.14448 13.5605 11.2363 10.3355C18.2677 6.02691 25.2817 2.57224 31.8283 0C36.6809 0 38.3647 0.685012 41.8673 2.39984C45.4064 4.07818 48.5259 6.72339 51.2259 10.3355L41.1011 20.0224C39.8971 17.6873 38.2917 15.9543 36.285 14.8232C34.3148 13.6557 31.9249 13.0719 29.1156 13.0719C25.7224 13.0719 22.986 13.9293 20.9063 15.6441C18.8266 17.3225 17.7868 19.5116 17.7868 22.2115C17.7868 26.4439 21.9096 30.3114 30.1554 33.814C31.7972 34.5072 33.056 35.0545 33.9317 35.4558C40.718 38.5571 45.7348 42.0597 48.982 45.9637C52.2657 49.8677 53.9076 54.3189 53.9076 59.3175C53.9076 66.8335 51.3353 72.8354 46.1908 77.3231C41.0828 81.7744 34.2053 84 25.5582 84C19.4286 84 14.1747 82.9419 9.7964 80.8258C5.41812 78.7096 2.15265 75.663 0 71.6861Z" fill="white"/>
</svg>
